<?xml version="1.0" standalone="no"?>
<!DOCTYPE svg PUBLIC "-//W3C//DTD SVG 20010904//EN"
 "http://www.w3.org/TR/2001/REC-SVG-20010904/DTD/svg10.dtd">
<svg version="1.0" xmlns="http://www.w3.org/2000/svg"
 width="1024.000000pt" height="768.000000pt" viewBox="0 0 1024.000000 768.000000"
 preserveAspectRatio="xMidYMid meet">

<g transform="translate(0.000000,768.000000) scale(0.100000,-0.100000)"
fill="#000000" stroke="none">
<path d="M4502 6289 c-137 -23 -282 -106 -387 -221 -91 -101 -185 -320 -185
-433 0 -25 0 -25 -67 -19 -51 4 -87 0 -147 -15 -104 -27 -177 -70 -257 -151
-66 -67 -67 -67 -135 -75 -90 -9 -168 -34 -247 -78 -99 -56 -99 -59 -2 -90
l83 -28 61 21 c45 15 86 20 160 20 l100 0 36 60 c92 152 245 211 447 174 69
-13 92 -14 98 -5 4 7 10 60 13 119 8 130 26 204 73 293 54 102 142 187 249
240 85 42 92 44 194 47 126 5 196 -14 301 -82 80 -52 131 -112 200 -236 29
-52 54 -96 56 -98 1 -2 29 10 63 27 33 17 94 42 135 56 179 60 362 11 499
-134 77 -82 123 -174 144 -285 l15 -83 37 8 c20 5 51 9 69 9 18 0 35 6 38 13
2 7 -2 45 -11 85 -69 332 -333 552 -662 553 -76 0 -106 -4 -177 -29 l-86 -30
-31 52 c-17 28 -68 87 -113 131 -157 155 -353 219 -564 184z"/>
<path d="M7295 6086 c-137 -36 -234 -95 -335 -203 -108 -115 -167 -237 -192
-395 l-12 -73 -72 3 c-154 7 -266 -39 -388 -160 -77 -76 -79 -78 -128 -78
-225 0 -462 -189 -539 -430 -30 -92 -37 -273 -15 -359 59 -231 220 -399 438
-457 44 -11 280 -14 1424 -14 l1370 0 60 23 c131 52 240 150 299 271 130 263
62 578 -161 741 l-61 45 -5 118 c-9 198 -76 352 -213 488 -182 179 -457 233
-680 135 l-42 -18 -33 55 c-43 72 -160 188 -232 230 -104 61 -189 85 -318 88
-73 2 -133 -1 -165 -10z m312 -156 c138 -48 242 -149 325 -314 22 -45 42 -83
43 -84 2 -2 34 12 72 32 183 95 331 106 483 34 92 -44 197 -151 243 -249 57
-120 69 -204 53 -349 l-8 -76 71 -39 c200 -109 284 -334 207 -552 -34 -97
-117 -190 -214 -239 l-57 -29 -1324 -3 c-870 -1 -1343 1 -1380 8 -116 21 -227
98 -302 209 -100 149 -95 390 11 549 93 139 223 200 428 202 52 0 52 0 86 53
47 74 126 142 192 166 67 25 139 27 258 5 68 -13 90 -14 96 -5 4 7 10 59 13
115 10 177 51 289 147 405 135 163 364 229 557 161z"/>
<path d="M7430 5221 c-59 -18 -60 -20 -48 -91 5 -32 3 -38 -31 -62 l-36 -26
-49 25 c-26 13 -49 23 -50 21 -9 -12 -66 -109 -66 -111 0 -2 20 -18 45 -36 42
-30 45 -36 45 -76 0 -43 0 -43 -51 -60 -28 -10 -52 -22 -55 -29 -2 -6 2 -33
10 -61 l13 -50 58 3 c53 3 60 1 80 -24 l22 -28 -18 -55 c-11 -30 -19 -55 -19
-57 0 -3 108 -64 114 -64 3 0 19 20 36 45 28 40 35 45 69 45 37 0 38 -1 56
-55 11 -30 23 -55 27 -55 5 0 35 7 68 17 64 17 66 20 51 85 -8 32 -6 39 18 62
33 31 41 32 91 6 22 -11 41 -20 44 -20 2 0 19 26 36 57 l32 57 -33 28 c-19 15
-38 28 -42 28 -5 0 -7 19 -5 42 3 40 5 43 53 62 28 11 51 20 53 22 8 5 -33
134 -43 134 -5 -1 -30 -5 -55 -10 -43 -8 -46 -7 -71 23 l-26 31 25 54 c13 29
22 55 21 56 -2 2 -28 16 -58 31 -46 23 -56 25 -65 13 -53 -70 -60 -75 -102
-71 -40 5 -42 7 -60 59 -10 30 -21 54 -24 53 -3 -1 -30 -9 -60 -18z m203 -235
c80 -43 113 -154 71 -241 -36 -76 -140 -121 -219 -95 -176 58 -175 309 2 355
56 15 94 10 146 -19z"/>
<path d="M7492 4878 c-30 -38 -22 -87 18 -108 14 -8 29 -7 55 4 31 13 35 19
35 50 0 19 -7 42 -16 50 -18 19 -77 21 -92 4z"/>
<path d="M4585 5416 l-40 -12 0 -62 c0 -58 -2 -64 -29 -81 -29 -19 -30 -19
-79 0 -27 11 -50 18 -52 17 -10 -16 -65 -109 -65 -111 0 -2 20 -18 45 -36 40
-29 45 -37 45 -71 0 -37 -1 -39 -51 -55 -28 -10 -52 -22 -54 -29 -3 -6 1 -36
8 -66 l13 -55 58 3 c55 3 61 1 81 -25 l23 -28 -19 -48 c-10 -26 -19 -49 -19
-51 0 -4 107 -66 114 -66 2 0 17 20 33 45 17 27 33 43 41 40 8 -3 26 -5 42 -5
25 0 30 -6 46 -50 10 -27 22 -50 28 -50 5 0 36 5 68 12 63 13 64 15 48 83 -8
37 -7 42 18 62 34 28 43 28 92 3 22 -11 41 -20 44 -20 4 0 66 106 66 114 0 3
-19 19 -43 35 -40 29 -42 34 -39 72 4 38 8 43 51 61 25 11 48 22 50 24 2 2 -2
31 -9 64 l-13 61 -41 -6 c-23 -4 -48 -8 -56 -10 -9 -2 -26 12 -41 33 -25 37
-25 38 -8 77 10 22 18 45 18 50 1 8 -91 75 -102 75 -2 0 -18 -20 -37 -45 -30
-41 -38 -45 -75 -45 -42 0 -42 0 -60 55 -21 61 -28 63 -100 41z m200 -225
c121 -55 146 -202 51 -297 -51 -52 -100 -67 -168 -53 -125 27 -187 179 -116
285 51 77 147 104 233 65z"/>
<path d="M4660 5070 c-41 -41 -13 -110 44 -110 19 0 40 8 49 18 37 41 6 112
-48 112 -14 0 -34 -9 -45 -20z"/>
<path d="M2691 5075 c-35 -8 -103 -33 -150 -57 -107 -53 -238 -177 -294 -278
-45 -82 -84 -197 -93 -277 l-6 -62 -67 6 c-141 11 -280 -46 -400 -164 -67 -67
-77 -73 -115 -73 -113 -1 -274 -66 -369 -151 -75 -67 -149 -179 -183 -281 -26
-74 -29 -96 -28 -203 1 -101 5 -133 27 -200 69 -208 231 -368 427 -420 85 -23
2718 -22 2805 0 149 39 285 152 353 296 47 98 62 162 62 263 0 189 -99 386
-247 487 l-43 30 0 67 c0 137 -38 281 -102 390 -51 87 -180 211 -265 255 -171
89 -361 99 -525 29 l-46 -21 -41 64 c-23 35 -75 95 -117 134 -161 151 -374
211 -583 166z m289 -155 c82 -24 177 -86 234 -153 24 -29 67 -95 96 -147 29
-52 54 -96 56 -98 1 -2 33 12 72 32 109 55 182 76 265 76 141 0 253 -48 353
-152 67 -68 98 -119 131 -215 25 -71 27 -91 27 -215 l0 -136 40 -23 c47 -25
121 -83 154 -119 36 -41 92 -161 101 -220 16 -102 -15 -234 -76 -327 -40 -60
-87 -100 -164 -140 l-54 -28 -1370 0 -1370 0 -67 32 c-302 143 -369 563 -128
802 32 32 82 67 120 85 59 28 76 31 177 34 l113 4 27 40 c49 72 111 134 162
161 75 41 187 52 303 31 69 -13 92 -14 98 -5 4 7 10 63 13 124 4 62 13 136 21
166 61 220 246 387 456 410 81 9 128 5 210 -19z"/>
<path d="M2805 4206 l-40 -12 2 -60 c1 -57 0 -61 -31 -80 -32 -21 -32 -21 -80
-2 -27 10 -49 17 -51 16 -1 -2 -16 -28 -34 -57 l-33 -55 23 -19 c13 -11 34
-28 47 -38 19 -15 22 -24 17 -53 -6 -31 -12 -37 -56 -51 -27 -9 -51 -20 -53
-24 -3 -4 3 -35 12 -70 l17 -62 61 6 c59 7 62 6 82 -22 18 -25 19 -32 7 -59
-29 -71 -30 -69 30 -103 30 -17 57 -31 59 -31 2 0 17 20 33 45 22 36 33 45 48
41 11 -3 30 -6 41 -6 17 0 26 -11 40 -50 10 -27 22 -50 28 -50 5 0 36 5 68 12
63 13 63 13 49 86 -8 40 -7 44 22 64 29 21 31 21 77 5 26 -9 50 -17 53 -17 3
0 19 25 37 56 25 45 29 59 18 66 -7 4 -28 18 -46 29 -21 14 -31 27 -28 36 3 8
6 26 6 40 0 20 9 28 50 46 55 23 57 29 38 104 l-11 46 -58 -6 c-55 -6 -58 -6
-81 26 -25 32 -25 32 -7 72 10 22 18 45 18 50 1 6 -24 25 -56 43 -43 25 -58
30 -65 20 -5 -7 -18 -28 -30 -46 -18 -30 -25 -33 -51 -28 -16 3 -35 6 -42 6
-7 0 -21 23 -31 50 -20 55 -28 58 -99 36z m210 -229 c129 -73 123 -268 -9
-328 -145 -66 -299 55 -261 204 7 27 21 61 32 75 52 70 161 93 238 49z"/>
<path d="M2880 3860 c-41 -41 -10 -110 49 -110 34 0 61 30 61 67 0 30 -34 63
-65 63 -14 0 -34 -9 -45 -20z"/>
<path d="M5409 4279 c-93 -63 -175 -161 -229 -274 -45 -93 -80 -211 -80 -269
0 -25 -1 -25 -67 -19 -65 5 -141 -7 -214 -35 -25 -10 -25 -11 -16 -74 14 -93
11 -90 54 -71 70 29 174 36 275 17 69 -13 92 -14 98 -5 4 7 10 59 13 115 7
126 28 210 73 296 33 64 108 152 170 201 l31 24 -26 66 -26 66 -56 -38z"/>
<path d="M4515 4198 c4 -35 8 -69 10 -75 3 -10 65 -13 264 -13 260 0 260 0
272 23 6 12 29 46 51 75 l39 52 -321 0 -321 0 6 -62z"/>
<path d="M7063 3728 c35 -46 73 -125 91 -189 20 -67 23 -140 12 -239 l-8 -75
44 -24 c196 -110 282 -265 257 -465 -19 -152 -106 -279 -234 -342 l-60 -29
-1370 0 -1370 0 -68 32 c-117 56 -222 183 -256 311 l-12 42 -75 0 -75 0 7 -37
c10 -58 58 -177 94 -232 73 -116 218 -221 350 -256 80 -21 2728 -22 2807 -1
140 37 290 160 350 286 63 130 80 282 48 419 -30 126 -127 270 -230 341 l-42
29 -6 113 c-5 119 -28 211 -73 301 l-24 47 -91 0 -90 0 24 -32z"/>
<path d="M5755 3516 l-40 -12 2 -60 c1 -56 -1 -61 -29 -81 l-31 -22 -50 20
c-27 11 -50 18 -52 17 -10 -16 -65 -109 -65 -111 0 -2 20 -18 45 -36 40 -29
45 -37 45 -71 0 -37 -1 -39 -51 -55 -28 -10 -52 -22 -54 -29 -3 -6 1 -36 8
-66 l13 -55 61 3 c57 3 62 2 81 -25 18 -25 19 -32 7 -59 -29 -71 -30 -69 30
-103 30 -17 57 -31 59 -31 2 0 17 20 33 45 22 36 33 45 48 41 11 -3 30 -6 41
-6 17 0 26 -11 40 -50 10 -27 22 -50 28 -50 5 0 36 5 68 12 63 13 63 13 49 86
-8 40 -7 44 22 64 29 21 31 21 77 5 26 -9 50 -17 53 -17 3 0 19 25 37 56 25
45 29 59 18 66 -7 4 -27 17 -44 28 -28 18 -30 23 -25 61 6 40 9 44 56 63 28
10 51 21 53 22 2 1 -4 30 -14 64 l-17 63 -58 -6 c-55 -6 -58 -6 -81 26 -25 32
-25 32 -7 72 10 22 18 45 18 50 0 6 -23 25 -51 44 -43 28 -53 31 -62 19 -60
-79 -60 -79 -104 -72 -38 6 -42 10 -58 55 -20 54 -28 57 -99 35z m204 -226
c81 -41 118 -116 100 -202 -13 -59 -49 -105 -104 -129 -120 -55 -243 15 -261
148 -18 143 136 250 265 183z"/>
<path d="M5830 3168 c-25 -28 -26 -62 0 -88 43 -43 110 -14 110 48 0 57 -70
82 -110 40z"/>
</g>
</svg>
